<svg width="48" height="48" viewBox="0 0 48 48" fill="none" xmlns="http://www.w3.org/2000/svg">
<g clip-path="url(#clip0_3_746)">
<path d="M39.75 0C38.5875 0 37.4812 0.459375 36.6562 1.28437L21.8906 16.05C20.9062 17.0344 20.0344 18.1219 19.2937 19.2938L12.4406 30.15C11.7562 31.2281 10.9594 32.2313 10.05 33.1406L6.55311 36.6281L11.3625 41.4375L14.8594 37.9406C15.7594 37.0406 16.7625 36.2344 17.85 35.55L28.7062 28.6969C29.8781 27.9563 30.9656 27.0844 31.95 26.1L46.7156 11.3438C47.5312 10.5281 48 9.4125 48 8.25C48 7.0875 47.5406 5.98125 46.7156 5.15625L42.8437 1.28437C42.0187 0.459375 40.9125 0 39.75 0ZM48 40.5C48 38.5109 47.2098 36.6032 45.8033 35.1967C44.3968 33.7902 42.4891 33 40.5 33C38.5109 33 36.6032 33.7902 35.1967 35.1967C33.7902 36.6032 33 38.5109 33 40.5C33 42.4891 33.7902 44.3968 35.1967 45.8033C36.6032 47.2098 38.5109 48 40.5 48C42.4891 48 44.3968 47.2098 45.8033 45.8033C47.2098 44.3968 48 42.4891 48 40.5ZM1.40624 37.4062C0.524988 38.2875 0.524988 39.7125 1.40624 40.5844L7.40624 46.5844C8.28749 47.4656 9.71249 47.4656 10.5844 46.5844C11.4562 45.7031 11.4656 44.2781 10.5844 43.4062L4.59374 37.4062C3.71249 36.525 2.28749 36.525 1.41561 37.4062H1.40624Z" fill="black"/>
</g>
<defs>
<clipPath id="clip0_3_746">
<rect width="48" height="48" fill="white"/>
</clipPath>
</defs>
</svg>
