<svg width="48" height="48" viewBox="0 0 48 48" fill="none" xmlns="http://www.w3.org/2000/svg">
<g clip-path="url(#clip0_3_767)">
<path d="M8.11875 6L16.1063 13.9875C18.2344 11.4094 19.5 8.1 19.5 4.5C19.5 3.12188 19.3125 1.79062 18.9656 0.525C14.8688 1.40625 11.1562 3.32812 8.11875 6ZM6 8.11875C3.32812 11.1562 1.40625 14.8688 0.525 18.9656C1.79062 19.3125 3.12188 19.5 4.5 19.5C8.1 19.5 11.4094 18.2344 13.9969 16.1156L6 8.11875ZM24 0C23.3156 0 22.6313 0.028125 21.9562 0.084375C22.3125 1.5 22.5 2.98125 22.5 4.5C22.5 8.93437 20.8969 12.9844 18.2438 16.125L24 21.8812L39.8812 6C35.6437 2.26875 30.0844 0 24 0ZM4.5 22.5C2.98125 22.5 1.5 22.3125 0.084375 21.9562C0.028125 22.6313 0 23.3156 0 24C0 30.0844 2.26875 35.6437 6 39.8812L21.8812 24L16.125 18.2438C12.9844 20.8969 8.93437 22.5 4.5 22.5ZM47.9156 26.0437C47.9719 25.3687 48 24.6844 48 24C48 17.9156 45.7313 12.3562 42 8.11875L26.1188 24L31.875 29.7562C35.0062 27.1031 39.0656 25.5 43.5 25.5C45.0187 25.5 46.5 25.6875 47.9156 26.0437ZM47.475 29.0344C46.2094 28.6875 44.8781 28.5 43.5 28.5C39.9 28.5 36.5906 29.7656 34.0031 31.8844L42 39.8812C44.6719 36.8531 46.6031 33.1406 47.475 29.0344ZM31.8844 34.0031C29.7656 36.5906 28.5 39.9 28.5 43.5C28.5 44.8781 28.6875 46.2094 29.0344 47.475C33.1313 46.5938 36.8438 44.6719 39.8812 42L31.8938 34.0125L31.8844 34.0031ZM29.7562 31.875L24 26.1188L8.11875 42C12.3469 45.7313 17.9062 48 24 48C24.6844 48 25.3687 47.9719 26.0437 47.9156C25.6875 46.5 25.5 45.0187 25.5 43.5C25.5 39.0656 27.1031 35.0156 29.7562 31.875Z" fill="black"/>
</g>
<defs>
<clipPath id="clip0_3_767">
<rect width="48" height="48" fill="white"/>
</clipPath>
</defs>
</svg>
