<svg width="48" height="48" viewBox="0 0 48 48" fill="none" xmlns="http://www.w3.org/2000/svg">
<path d="M39.1219 33.7594L32.4094 33.3094C31.9219 33.2812 31.4438 33.4125 31.05 33.7031C30.6563 33.9937 30.375 34.3969 30.2625 34.875L28.6125 41.4C27.1406 41.7938 25.5938 42 24 42C22.4062 42 20.8594 41.7938 19.3875 41.4L17.7375 34.875C17.6156 34.4062 17.3344 33.9937 16.95 33.7031C16.5656 33.4125 16.0781 33.2812 15.5906 33.3094L8.87812 33.7594C7.22812 31.2094 6.20625 28.2094 6.02813 24.9844L11.7188 21.4031C12.1313 21.1406 12.4312 20.7469 12.5812 20.2875C12.7312 19.8281 12.7125 19.3312 12.5344 18.8812L10.0312 12.6375C12 10.2375 14.5594 8.34375 17.5031 7.20938L22.6781 11.5219C23.0531 11.8313 23.5219 12 24 12C24.4781 12 24.9563 11.8313 25.3219 11.5219L30.4969 7.20938C33.4312 8.34375 36 10.2375 37.9594 12.6375L35.4563 18.8812C35.2781 19.3312 35.2594 19.8281 35.4094 20.2875C35.5594 20.7469 35.8687 21.1406 36.2719 21.4031L41.9625 24.9844C41.7844 28.2094 40.7625 31.2094 39.1125 33.7594H39.1219ZM24 48C30.3652 48 36.4697 45.4714 40.9706 40.9706C45.4714 36.4697 48 30.3652 48 24C48 17.6348 45.4714 11.5303 40.9706 7.02944C36.4697 2.52856 30.3652 0 24 0C17.6348 0 11.5303 2.52856 7.02944 7.02944C2.52856 11.5303 0 17.6348 0 24C0 30.3652 2.52856 36.4697 7.02944 40.9706C11.5303 45.4714 17.6348 48 24 48ZM25.3219 17.4656C24.5344 16.8938 23.4656 16.8938 22.6781 17.4656L18.1875 20.7188C17.4 21.2906 17.0719 22.3031 17.3719 23.2313L19.0875 28.5094C19.3875 29.4375 20.25 30.0656 21.225 30.0656H26.775C27.75 30.0656 28.6125 29.4375 28.9125 28.5094L30.6281 23.2313C30.9281 22.3031 30.6 21.2906 29.8125 20.7188L25.3219 17.4562V17.4656Z" fill="black"/>
</svg>
