<svg width="32" height="32" viewBox="0 0 32 32" fill="none" xmlns="http://www.w3.org/2000/svg">
<g clip-path="url(#clip0_1_5)">
<path d="M26.0812 22.5063L21.6063 22.2062C21.2812 22.1875 20.9625 22.275 20.7 22.4688C20.4375 22.6625 20.25 22.9312 20.175 23.25L19.075 27.6C18.0938 27.8625 17.0625 28 16 28C14.9375 28 13.9062 27.8625 12.925 27.6L11.825 23.25C11.7437 22.9375 11.5563 22.6625 11.3 22.4688C11.0437 22.275 10.7188 22.1875 10.3938 22.2062L5.91875 22.5063C4.81875 20.8062 4.1375 18.8062 4.01875 16.6562L7.8125 14.2688C8.0875 14.0938 8.2875 13.8312 8.3875 13.525C8.4875 13.2188 8.475 12.8875 8.35625 12.5875L6.6875 8.425C8 6.825 9.70625 5.5625 11.6687 4.80625L15.1187 7.68125C15.3687 7.8875 15.6812 8 16 8C16.3188 8 16.6375 7.8875 16.8813 7.68125L20.3312 4.80625C22.2875 5.5625 24 6.825 25.3062 8.425L23.6375 12.5875C23.5188 12.8875 23.5063 13.2188 23.6063 13.525C23.7063 13.8312 23.9125 14.0938 24.1812 14.2688L27.975 16.6562C27.8563 18.8062 27.175 20.8062 26.075 22.5063H26.0812ZM16 32C20.2435 32 24.3131 30.3143 27.3137 27.3137C30.3143 24.3131 32 20.2435 32 16C32 11.7565 30.3143 7.68687 27.3137 4.68629C24.3131 1.68571 20.2435 0 16 0C11.7565 0 7.68687 1.68571 4.68629 4.68629C1.68571 7.68687 0 11.7565 0 16C0 20.2435 1.68571 24.3131 4.68629 27.3137C7.68687 30.3143 11.7565 32 16 32ZM16.8813 11.6438C16.3563 11.2625 15.6437 11.2625 15.1187 11.6438L12.125 13.8125C11.6 14.1938 11.3813 14.8688 11.5813 15.4875L12.725 19.0063C12.925 19.625 13.5 20.0438 14.15 20.0438H17.85C18.5 20.0438 19.075 19.625 19.275 19.0063L20.4188 15.4875C20.6188 14.8688 20.4 14.1938 19.875 13.8125L16.8813 11.6375V11.6438Z" fill="white"/>
</g>
<defs>
<clipPath id="clip0_1_5">
<rect width="32" height="32" fill="white"/>
</clipPath>
</defs>
</svg>
