<svg width="48" height="48" viewBox="0 0 48 48" fill="none" xmlns="http://www.w3.org/2000/svg">
<path d="M23.2031 2.38129C21.9375 2.69067 20.7281 3.05629 19.5844 3.47817C13.3969 5.77504 9.06564 9.71255 6.18752 14.4C4.48127 17.1938 3.29064 20.2407 2.52189 23.3438L24.7969 45.6188C26.0625 45.3094 27.2719 44.9438 28.4156 44.5219C34.6031 42.225 38.9344 38.2875 41.8125 33.6C43.5281 30.8063 44.7094 27.7594 45.4781 24.6657L23.2031 2.38129ZM46.425 19.2469C46.9969 13.9219 46.5563 8.72817 45.7031 4.58442C45.45 3.37504 44.4844 2.43754 43.2563 2.23129C37.8 1.32192 32.9531 1.10629 28.6688 1.49067L46.425 19.2469ZM19.3219 46.5L1.57502 28.7532C1.00314 34.0782 1.44377 39.2719 2.29689 43.4157C2.55002 44.625 3.51564 45.5625 4.74377 45.7688C10.2 46.6782 15.0469 46.8938 19.3313 46.5094L19.3219 46.5ZM24.4406 15.4407C25.0219 14.8594 25.9781 14.8594 26.5594 15.4407L32.5594 21.4407C33.1406 22.0219 33.1406 22.9782 32.5594 23.5594C31.9781 24.1407 31.0219 24.1407 30.4406 23.5594L24.4406 17.5594C23.8594 16.9782 23.8594 16.0219 24.4406 15.4407ZM19.9406 19.9407C20.5219 19.3594 21.4781 19.3594 22.0594 19.9407L28.0594 25.9407C28.6406 26.5219 28.6406 27.4782 28.0594 28.0594C27.4781 28.6407 26.5219 28.6407 25.9406 28.0594L19.9406 22.0594C19.3594 21.4782 19.3594 20.5219 19.9406 19.9407ZM15.4406 24.4407C16.0219 23.8594 16.9781 23.8594 17.5594 24.4407L23.5594 30.4407C24.1406 31.0219 24.1406 31.9782 23.5594 32.5594C22.9781 33.1407 22.0219 33.1407 21.4406 32.5594L15.4406 26.5594C14.8594 25.9782 14.8594 25.0219 15.4406 24.4407Z" fill="black"/>
</svg>
