<svg width="48" height="48" viewBox="0 0 48 48" fill="none" xmlns="http://www.w3.org/2000/svg">
<g clip-path="url(#clip0_3_761)">
<path d="M37.7143 36H6.85714L0.578571 16.7719C0.192857 15.6 0 14.3813 0 13.1531C0 5.8875 6.72857 0 15.0321 0H15.3964C22.4679 0 28.6286 4.20938 30.3429 10.2094L33.7071 22.0031L35.5929 20.1188C36.9429 18.7688 38.8821 18 40.9286 18H41.2286C44.9679 18 48.0107 20.6531 48.0107 23.9344C48.0107 25.425 47.3679 26.8594 46.2107 27.9563L37.7143 36ZM3.42857 42C3.42857 40.3406 4.96071 39 6.85714 39H37.7143C39.6107 39 41.1429 40.3406 41.1429 42V45C41.1429 46.6594 39.6107 48 37.7143 48H6.85714C4.96071 48 3.42857 46.6594 3.42857 45V42Z" fill="black"/>
</g>
<defs>
<clipPath id="clip0_3_761">
<rect width="48" height="48" fill="white"/>
</clipPath>
</defs>
</svg>
